<?xml version="1.0" standalone="no"?>
<!DOCTYPE svg PUBLIC "-//W3C//DTD SVG 20010904//EN"
 "http://www.w3.org/TR/2001/REC-SVG-20010904/DTD/svg10.dtd">
<svg version="1.0" xmlns="http://www.w3.org/2000/svg"
 width="819.000000pt" height="460.000000pt" viewBox="0 0 819.000000 460.000000"
 preserveAspectRatio="xMidYMid meet">

<g transform="translate(0.000000,460.000000) scale(0.100000,-0.100000)"
fill="#000000" stroke="none">
<path d="M3809 2954 c-201 -62 -314 -438 -171 -567 50 -46 150 -58 241 -31 61
18 91 44 91 79 0 31 -2 31 -59 3 -33 -16 -64 -23 -108 -23 -54 0 -65 3 -92 29
-99 95 -27 373 114 437 67 31 134 22 183 -24 23 -22 24 -22 38 -3 29 40 11 72
-59 101 -45 18 -117 18 -178 -1z"/>
<path d="M5029 2954 c-201 -62 -314 -438 -171 -567 50 -46 150 -58 241 -31 61
18 91 44 91 79 0 31 -2 31 -59 3 -33 -16 -64 -23 -108 -23 -54 0 -65 3 -92 29
-99 95 -27 373 114 437 67 31 134 22 183 -24 23 -22 24 -22 38 -3 29 40 11 72
-59 101 -45 18 -117 18 -178 -1z"/>
<path d="M2263 2948 c-6 -7 -76 -131 -157 -274 -158 -283 -173 -324 -117 -324
26 0 33 8 71 80 l41 81 127 -3 127 -3 12 -75 c6 -41 12 -76 12 -77 1 -2 19 -3
41 -3 30 0 40 4 40 16 0 25 -91 577 -96 586 -8 13 -91 9 -101 -4z m58 -215
c28 -180 36 -163 -81 -163 -55 0 -100 2 -100 4 0 12 153 286 158 282 2 -3 13
-59 23 -123z"/>
<path d="M2922 2948 c-15 -19 -123 -581 -113 -591 5 -5 67 -7 137 -5 158 4
209 23 255 96 46 73 35 189 -21 207 -27 8 -25 19 5 39 53 35 84 152 54 208
-21 39 -85 58 -200 58 -73 0 -110 -4 -117 -12z m216 -74 c45 -31 22 -132 -38
-168 -30 -17 -150 -23 -150 -7 0 11 30 161 35 179 6 18 125 16 153 -4z m-16
-271 c26 -27 28 -81 3 -119 -30 -46 -73 -64 -156 -64 l-76 0 21 106 20 106 83
-4 c69 -2 86 -7 105 -25z"/>
<path d="M4415 2938 c-10 -41 -115 -572 -115 -580 0 -4 18 -8 40 -8 33 0 41 4
45 23 10 40 115 571 115 579 0 4 -18 8 -40 8 -33 0 -41 -4 -45 -22z"/>
<path d="M2573 2448 c-18 -23 -25 -69 -12 -84 16 -19 64 -18 84 2 10 11 15 29
13 53 -3 33 -6 36 -39 39 -21 2 -40 -2 -46 -10z"/>
<path d="M3333 2448 c-18 -23 -25 -69 -12 -84 16 -19 64 -18 84 2 10 11 15 29
13 53 -3 33 -6 36 -39 39 -21 2 -40 -2 -46 -10z"/>
<path d="M4073 2448 c-18 -23 -25 -69 -12 -84 16 -19 64 -18 84 2 10 11 15 29
13 53 -3 33 -6 36 -39 39 -21 2 -40 -2 -46 -10z"/>
<path d="M4553 2448 c-18 -23 -25 -69 -12 -84 16 -19 64 -18 84 2 10 11 15 29
13 53 -3 33 -6 36 -39 39 -21 2 -40 -2 -46 -10z"/>
<path d="M1960 2210 l0 -30 1640 0 1640 0 0 30 0 30 -1640 0 -1640 0 0 -30z"/>
</g>
</svg>
